<?xml version="1.0" encoding="utf-8"?>
<!-- Generator: Adobe Illustrator 19.0.0, SVG Export Plug-In . SVG Version: 6.00 Build 0)  -->
<svg version="1.1" id="Layer_1" xmlns="http://www.w3.org/2000/svg" xmlns:xlink="http://www.w3.org/1999/xlink" x="0px" y="0px"
	 viewBox="0 0 1257.2 1082.7" style="enable-background:new 0 0 1257.2 1082.7;" xml:space="preserve">
<style type="text/css">
	.st0{fill:#FFFFFF;}
	.st1{opacity:0.3;}
	.st2{opacity:0.8;}
	.st3{opacity:0.76;}
</style>
<g>
	<path class="st0" d="M711,248.3c-4.8-14.4-11.4-28.3-12.3-43.7c-0.7-11.2,2.1-21.8,8.6-31c11.4-16.2,31.4-25.1,49.6-31.3
		c22.8-7.8,46.9-10.9,70.8-11.3c27.1-0.4,54.7,3.1,80.4,12c36.4,12.6,65.6,38.2,85.8,70.6c7.2,11.5,13.9,25.5,13.2,39.5
		c-0.1,2.2,0.9,3.9,1.7,6c1.5,4.2,2.6,8.6,2.9,13.1c0.5,7.8-3,14.2-8.8,19.2c-0.6,0.5-1.7,0.2-0.9-0.5c11.6-10,7.9-24,2.8-36.7
		c-0.3-0.8,0.2-2.6,0.2-3.4c0-4.3-0.9-8.5-1.9-12.6c-3.7-13.9-11.9-26.4-20.3-37.9c-8.2-11.2-17.7-21.3-28.5-30
		c-45-36.8-109.2-43.6-164.9-34.5c-23.9,3.9-49.5,11.8-68.7,27c-10.5,8.3-18,19.6-19.6,33c-2.2,18.6,5.4,36.2,11.7,51.8
		C713.1,248.3,711.3,249.1,711,248.3"/>
	<path class="st0" d="M649.9,343.2C656,347,661.6,351,666,357c9.1,12.4,8.4,28.1,3.4,42c-0.1,0.2,0.6,0,0.6-0.1
		c5.1-14.1,5.6-29.4-3.4-42.1c-4.3-6-10-10.1-16.2-13.8C650.3,342.8,649.7,343.1,649.9,343.2"/>
	<path class="st0" d="M674.1,400.6c1.8-9.2,4.8-18.2,4.2-27.7c-0.5-6.9-3-13.2-7.7-18.3c-8.2-9-21.2-13-32.7-15.4
		c-14.5-3-29.5-3.1-44.3-1.5c-16.7,1.8-33.3,6.1-48.3,13.5c-21.4,10.5-37.2,28.4-47.2,49.8c-3.5,7.6-6.6,16.7-5,25.2
		c0.2,1.3-0.3,2.5-0.6,3.8c-0.6,2.7-0.9,5.5-0.8,8.3c0.3,4.8,3,8.5,6.9,11.1c0.4,0.3,1,0,0.5-0.4c-7.9-5.2-6.7-14.1-4.5-22.3
		c0.1-0.5-0.3-1.6-0.4-2.1c-0.3-2.6-0.1-5.3,0.2-7.9c1.2-8.8,5.3-17.1,9.5-24.8c4.1-7.5,9.2-14.4,15.1-20.6
		c24.8-26,63.6-35.1,98.4-33.8c15,0.6,31.2,3.4,44.2,11.3c7.1,4.3,12.5,10.6,14.5,18.7c2.8,11.2-0.5,22.6-3.2,32.6
		C672.9,400.7,674,401.1,674.1,400.6"/>
	<path class="st0" d="M739.2,442.3c-16.3,0.6-23.9-13.9-28.7-27.4c-7-19.7-9.2-40.8-16.7-60.4c-6-15.7-19.1-28.8-17.8-46.6
		c0.9-12.1,6.6-24.9,12.6-35.3c6.5-11.4,15.7-20.6,26.8-27.5c21.4-13.1,45.4-12.2,69.2-8.5c14.9,2.3,29.5,4.7,44.7,4.1
		c14.5-0.5,28.5-4,42.1-8.6c21.1-7.2,46.2-13.5,67.5-3.2c7.2,3.5,12.4,10.3,17.4,16.2c7.5,8.7,15.5,16.7,27.3,18.6
		c1.3,0.2,1.1,1.1-0.2,0.9c-9.7-1.6-17.3-6.8-24-13.8c-7.2-7.5-13.1-17.2-22.8-21.8c-15.7-7.6-35.3-4.4-51.3,0
		c-14.4,4-28,9.9-42.8,12.3c-31,5.1-60.9-7.1-91.8-5.7c-15.1,0.7-29.5,6.6-41.4,15.7c-11.9,9.2-19.4,21.7-25.2,35.4
		c-6,13.9-8.6,27.8-1.8,41.8c2.9,6.1,6.6,11.8,9.8,17.8c3.4,6.6,5.8,13.6,7.9,20.7c4.3,15.1,7,30.7,11.8,45.7
		c4,12.5,11.1,28.9,26.7,28.3c0.7,0,2.3,1,0.9,1L739.2,442.3z"/>
	<path class="st0" d="M504.6,509.7c0-13.4-13.1-20.2-39.4-20.2c-8.2,0-18,1.1-29.3,3.4c19.5,13.5,35.7,29.1,48.5,47
		C497.9,528.5,504.6,518.4,504.6,509.7 M480.7,542.5c-12.6-18.2-29.6-34.4-51-48.5c-30.7,8.4-60.6,22.8-89.8,43.2
		c-29.2,20.4-53.2,43.7-71.9,69.8c34.3,0,72.3-6.3,113.8-18.8C423.5,575.6,456.4,560.4,480.7,542.5 M422.9,489.6
		c-49.9-28.9-103-43.3-159.3-43.3c-34.8,0-65.2,8.2-91.2,24.6c-26,16.4-39,35.6-39,57.6c0,39.2,33.3,64.6,99.9,76.1
		C274.7,546.9,337.9,508.6,422.9,489.6 M508.5,509.7c0,10.7-7.4,21.7-22.2,33.2c13.5,19.9,20.2,38.2,20.2,54.9
		c0,4.1-1.2,6.2-3.7,6.2c-2,0-2.9-2.7-2.9-8.1c0-16.4-5.7-33.1-17.2-50c-23.8,17.7-56.2,33-97.1,45.9
		c-40.9,12.9-77.3,19.3-108.9,19.3c-4.4,0-8.3-0.2-11.6-0.5c-26.3,36.6-39.4,71.9-39.4,105.9c0,23.2,7.2,41.4,21.5,54.9
		c14.4,13.4,33.9,20.2,58.7,20.2c46.8,0,88.4-22.4,125-67.2c22.2-27.1,33.2-52.8,33.2-77c0-12.8-3.9-23-11.6-30.5
		c-7.7-7.5-17.9-11.3-30.7-11.3c-20.5,0-42.5,10.8-66,32.4c-23.5,21.6-35.3,41.7-35.3,60.4c0,1.6,0.5,2.5,1.5,2.5
		c0.8-0.2,1.5-0.5,1.9-1c4.4-3.9,8.5-5.9,12.2-5.9c8.3,0,12.4,4.5,12.4,13.5c0,12.1-5.9,18.2-17.7,18.2c-10.8,0-16.2-6.6-16.2-19.7
		c0-23.5,11.9-46.7,35.7-69.8c23.8-23.1,47.9-34.6,72.4-34.6c31.5,0,47.3,17.3,47.3,51.9c0,35.8-17.1,68.4-51.3,97.8
		c-34.2,29.5-72.2,44.2-113.8,44.2c-29,0-53.5-9.8-73.2-29.3c-19.8-19.5-29.7-43.7-29.7-72.4c0-27.9,9.8-56.5,29.3-85.9
		c-71.1-13.1-106.6-41.2-106.6-84.2c0-25.6,13.2-47,39.6-64.2c26.4-17.2,59.3-25.8,98.7-25.8c55,0,110.5,18.3,166.6,54.9
		c9.7-2,19.6-3,29.8-3C492.2,485.6,508.5,493.7,508.5,509.7"/>
	<path class="st0" d="M589.5,665.1c0-8-3.7-12.1-11.1-12.1c-15.1,0-34.9,14.8-59.5,44.3c-24.5,29.5-36.8,53.4-36.8,71.6
		c0,10.7,4.8,16,14.3,16c11.3,0,30.9-18.8,58.8-56.4C578.1,697.7,589.5,676.6,589.5,665.1 M657.3,705.8c0,3.5-12,19.4-36,47.8
		c-19.4,23.3-34.7,35-45.8,35c-7.6,0-13.7-2.8-18.5-8.5c-4.8-5.7-7.1-12.8-7.1-21.3c0-8.9,2.6-18.5,7.9-28.8
		c-16.4,23-29,38.5-37.7,46.5c-8.7,8-17.1,12.1-25.4,12.1c-8.7,0-16-3.7-21.9-11.2c-5.9-7.5-8.9-16.9-8.9-28.2
		c0-31.5,22.2-59.4,66.7-83.7c19.5-10.8,35.3-16.2,47.3-16.2c10.2,0,15.3,4.9,15.3,14.8c0,2.8-0.7,6.5-2,11.1l12.6-23.9
		c4.9,1.1,9.3,1.7,13.1,1.7c4.4,0,10.2-0.6,17.2-1.7l-43.6,72.1c-15.1,25.3-22.6,41.9-22.6,50c0,7.7,3.2,11.6,9.6,11.6
		c6.6,0,17.1-7.5,31.5-22.6c14.5-15,29.2-33.6,44.1-55.6c1-1.6,1.9-2.5,2.7-2.5C656.8,704.3,657.3,704.8,657.3,705.8"/>
	<path class="st0" d="M786.9,531.4C718,646.1,677.9,713.6,666.4,733.7c-11.4,20.2-17.1,33.6-17.1,40.1c0,7.4,3.1,11.1,9.4,11.1
		c13.8,0,39.1-26,75.9-78.1c0.8-1.6,1.8-2.5,3-2.5c0.7,0.2,1,0.7,1,1.5c0,1-0.8,2.3-2.5,4l-10.6,14.5c-31.1,42.9-54,64.3-68.8,64.3
		c-7.1,0-12.9-2.7-17.4-8c-4.5-5.3-6.8-12.1-6.8-20.3c0-9,2.1-17.8,6.3-26.2c4.2-8.5,18.4-32.9,42.7-73.2
		c29.7-49.4,54.7-92.2,75.1-128.5c4.9,1.3,9.3,2,13.1,2C775.9,534.4,781.7,533.4,786.9,531.4"/>
	<path class="st0" d="M867.7,531.4c-68.9,114.7-109.1,182.2-120.5,202.3c-11.4,20.2-17.1,33.6-17.1,40.1c0,7.4,3.1,11.1,9.4,11.1
		c13.8,0,39.1-26,75.9-78.1c0.8-1.6,1.8-2.5,3-2.5c0.7,0.2,1,0.7,1,1.5c0,1-0.8,2.3-2.5,4l-10.6,14.5c-31.1,42.9-54,64.3-68.8,64.3
		c-7.1,0-12.9-2.7-17.4-8c-4.5-5.3-6.8-12.1-6.8-20.3c0-9,2.1-17.8,6.3-26.2c4.2-8.5,18.4-32.9,42.7-73.2
		c29.7-49.4,54.7-92.2,75.1-128.5c4.9,1.3,9.3,2,13.1,2C856.7,534.4,862.4,533.4,867.7,531.4"/>
	<path class="st0" d="M924.6,665.1c0-8-3.7-12.1-11.1-12.1c-15.1,0-34.9,14.8-59.5,44.3c-24.5,29.5-36.8,53.4-36.8,71.6
		c0,10.7,4.8,16,14.3,16c11.3,0,30.9-18.8,58.8-56.4C913.1,697.7,924.6,676.6,924.6,665.1 M992.4,705.8c0,3.5-12,19.4-36,47.8
		c-19.4,23.3-34.7,35-45.8,35c-7.6,0-13.7-2.8-18.5-8.5c-4.8-5.7-7.1-12.8-7.1-21.3c0-8.9,2.6-18.5,7.9-28.8
		c-16.4,23-29,38.5-37.7,46.5c-8.7,8-17.1,12.1-25.4,12.1c-8.7,0-16-3.7-21.9-11.2c-5.9-7.5-8.9-16.9-8.9-28.2
		c0-31.5,22.2-59.4,66.7-83.7c19.5-10.8,35.3-16.2,47.3-16.2c10.2,0,15.3,4.9,15.3,14.8c0,2.8-0.7,6.5-2,11.1l12.6-23.9
		c4.9,1.1,9.3,1.7,13.1,1.7c4.4,0,10.2-0.6,17.2-1.7l-43.6,72.1c-15.1,25.3-22.6,41.9-22.6,50c0,7.7,3.2,11.6,9.6,11.6
		c6.6,0,17.1-7.5,31.6-22.6c14.5-15,29.2-33.6,44.1-55.6c1-1.6,1.9-2.5,2.7-2.5C991.9,704.3,992.4,704.8,992.4,705.8"/>
	<path class="st0" d="M1041.7,707.4c0-4.9-0.2-9.8-0.5-14.6c-0.3-4.8-0.5-11.8-0.5-20.8c0-7.4,0.3-13.5,1-18.5
		c-9.2,11.7-22.5,28.1-39.9,49.2c3.1,2.6,4.7,5.8,4.7,9.6c0,9.7-8,16.2-23.9,19.7c-6.4,1.5-11.9,5-16.6,10.5c-4.7,5.5-7,11.3-7,17.4
		c0,6.6,2.4,12,7.1,16.5c4.8,4.4,10.7,6.6,17.7,6.6c13.8,0,26.9-8,39.3-24C1035.5,743,1041.7,725.8,1041.7,707.4 M1075.9,610.3
		c0,6.6-10.3,19.6-30.8,39c-1,5.1-1.5,9.5-1.5,13.3c0,9.5,4.3,24.6,13,45.3c4.4,10.3,6.6,19,6.6,26.1c0,14.8-7.2,27.6-21.5,38.4
		c-14.4,10.8-31.4,16.3-51.1,16.3c-11.2,0-20.1-3.2-26.7-9.5c-6.7-6.3-10-14.8-10-25.5c0-12.3,4.4-24.3,13.2-35.9
		c8.8-11.6,17.9-17.5,27.2-17.5c1.6,0,3.1,0.3,4.4,1l19.7-24.1c5.9-7,13.8-16.8,23.6-29.3c2.8-11.5,7.1-21.3,12.8-29.5
		c5.7-8.2,11.4-12.3,17-12.3C1074.6,606,1075.9,607.4,1075.9,610.3"/>
	<g class="st1">
		<g>
			<path class="st0" d="M608.9,336.9c-2.4,0-4.9,0.1-7.4,0.4c-6.8,0.8-13,1.3-19.9,2.5c-6.3,1.1-12.7,2.7-18.9,4.8
				c-5.3,1.7-11.4,4.1-16.9,6.8c-10.5,5.2-19.7,11.9-27.7,20.7c-7.7,8.4-13.1,16.7-18.2,26.8c-4.1,8.3-8,17.7-5.9,27.3
				c-2.3,9.1-2.6,18.7,5.1,23.1c-5.5-6.7-3.3-13.9,4.9-16.8c4.6-1.7,9.1-1.7,13.7-3.1c5.3-1.9,10.6-4.1,15.7-6.3
				c9-3.6,17.2-7.8,27-7.8c0.5,0,1,0,1.6,0c9.3,0.4,17.3,4.2,23.8,10.3c2.5,2.5,5,4.7,7.4,7.4c1.8,2.1,4.1,4.4,6,7
				c4.8,4.6,8.6,10.6,12.8,16.7c2.6,3.8,5.2,7.8,7.3,12c1.9,3.7,4,7.6,5.7,11.2c3.7,8,7.2,12.8,13.5,19.7c5.7,6.2,13.4,9,20.1,14.1
				c4.4,3.4,7.8,6.4,13.4,7.5c2.4-0.2,4.5-0.9,6.2-2.2c6.5-4.1,7.3-12.1,9-19.2c1.7-7.7,1.5-15.7,2.6-23.5c1.3-8,2.8-13.9,5.8-21.7
				c2.6-6.9,5.4-12,4-19.6c-1.6-8.6-6.8-16.1-12-23c-3.3-4.2-9.4-8.7-14.3-11.3c1.5-4.2,2-8.3,2.9-11.9c2.5-10.4,2.3-18.9-1.7-27.4
				c-5.2-10.9-16.4-15.9-26.9-19.3c-9.1-2.9-18.8-4.3-29.1-4.8C615.2,337.1,612.1,336.9,608.9,336.9"/>
		</g>
	</g>
	<path class="st0" d="M671.7,521.6c10-0.9,13.6-10.3,15.5-19c2.8-12.6,2.5-25.7,5.6-38.3c2.5-10.1,9.5-19.1,7.3-29.9
		c-1.5-7.4-6-14.7-10.4-20.6c-4.9-6.5-11.2-11.4-18.5-14.8c-14.1-6.4-28.8-4-43,0.1c-9,2.6-17.7,5.1-27.1,5.9
		c-8.9,0.8-17.8-0.3-26.4-2.1c-13.5-2.8-29.3-4.7-41.6,3.2c-4.1,2.7-6.8,7.3-9.4,11.3c-3.9,5.9-8.2,11.4-15.3,13.5
		c-0.8,0.2-0.6,0.8,0.2,0.6c5.8-1.7,10.1-5.5,13.6-10.3c3.8-5.2,6.7-11.5,12.3-15.1c9-5.8,21.3-5.4,31.4-3.9
		c9.1,1.3,17.9,3.9,27.2,4.3c19.4,0.8,36.8-9,55.8-10.5c9.3-0.7,18.6,1.8,26.6,6.5c8,4.7,13.5,11.8,18.2,19.8
		c4.7,8.1,7.4,16.4,4.3,25.5c-1.3,4-3.2,7.7-4.6,11.7c-1.6,4.3-2.5,8.8-3.2,13.3c-1.5,9.6-1.9,19.3-3.8,28.9
		c-1.5,8-4.6,18.5-14.2,19.4c-0.4,0-1.3,0.8-0.5,0.7L671.7,521.6z"/>
	<path class="st0" d="M499.2,449c-2.7-3.6-3.6-8.1-0.9-12.1c2.6-3.7,7.8-5,12.1-5.3c0.7-0.1,0.9-1,0.1-0.9c-4.9,0.4-10,2-13.2,6
		c-3.3,4-1.4,9.1,1.4,12.7C498.9,449.7,499.6,449.5,499.2,449"/>
	<path class="st0" d="M510.4,431.5c13.8-1.8,27.5-11.6,42.3-14.8c9-1.9,16.9-0.9,24.8,3.9c7.9,4.8,14.5,11.9,20.5,18.8
		c6.6,7.5,12.5,15.4,17.5,24c4.9,8.5,9,17.3,13.9,25.8c3.5,6.1,9,11.8,14.7,15.9c3.5,2.5,7.3,4.3,10.9,6.7c3.4,2.3,6.4,5.2,10,7.3
		c2,1.2,4.2,1.9,6.5,2.4c0.5,0.1,1.5-0.7,0.7-0.9c-8.5-1.9-14.6-9.1-22.1-13c-7.3-3.8-13.6-10.4-18.3-17.1
		c-5.5-7.9-9.2-17.1-13.8-25.5c-4.6-8.2-9.9-15.7-15.9-22.9c-9.5-11.5-22.2-26.4-38.3-27.4c-14.8-0.9-28.5,7.1-41.7,12.4
		c-3.7,1.5-7.6,2.5-11.5,3.5C509.8,430.8,509.5,431.7,510.4,431.5"/>
	<path class="st0" d="M494,428.1c7.9-14.9,25.7-24.4,42.4-23.4c0.2,0,0.7-0.3,0.5-0.3c-17.1-1.1-35.5,8.6-43.5,23.8
		C493.3,428.3,493.9,428.2,494,428.1"/>
	<path class="st0" d="M493.8,423.4c9.1-18.9,31.4-27.7,51.2-21.8c0.2,0,1-0.2,0.7-0.2c-20.2-5.9-43.3,2.9-52.6,22.2
		C493.1,423.7,493.7,423.6,493.8,423.4"/>
	<path class="st0" d="M493.6,421.1c2-12,15.5-20.8,26.1-24.5c13.4-4.6,28-2.2,39.9,4.8c0.2,0.1,0.8-0.2,0.5-0.3
		c-12.6-7.3-27.4-9.3-41.3-4.5c-10.5,3.7-23.9,12.8-25.9,24.6C492.9,421.4,493.6,421.3,493.6,421.1"/>
	<path class="st0" d="M495.1,413c4.6-12.7,19.7-21,32.4-23.4c14.7-2.7,30.7,1,40.5,12.7c0.2,0.2,0.8-0.1,0.6-0.3
		c-10.2-12.2-26.7-15.4-41.8-12.7c-12.6,2.3-27.6,11.1-32.2,23.6C494.3,413.3,495,413.2,495.1,413"/>
	<path class="st0" d="M497.4,405c3.6-7.1,10.4-12,17.2-15.7c6.3-3.4,13-5.6,20.1-5.8c17.4-0.7,34.8,6.2,44.9,20.8
		c0.1,0.2,0.7-0.1,0.6-0.3c-10.6-15.4-28.8-21.8-47-20.8c-6.7,0.3-13,2.8-18.8,5.9c-7,3.6-13.9,8.8-17.6,16
		C496.6,405.3,497.3,405.3,497.4,405"/>
	<path class="st0" d="M499.5,399.5c9.2-15.4,29-22.1,46.3-21.3c9,0.4,17.8,3.6,25.4,8.2c3.7,2.2,7.1,4.9,10.2,8
		c3.5,3.4,5.7,7.1,7.9,11.4c0.1,0.2,0.7,0,0.6-0.2c-1-1.9-1.9-3.5-3.2-5.5c-1.4-2.2-2.9-4.1-4.7-6c-3.5-3.6-7.6-6.5-11.9-9
		c-7.7-4.5-16.9-7.3-25.9-7.3c-17,0-36.1,6.5-45.2,21.8C498.8,399.8,499.5,399.7,499.5,399.5"/>
	<path class="st0" d="M505.5,389.1c13.3-13.4,34.3-18.4,52.6-14.7c17.2,3.5,31.3,16.4,39.4,31.6c0.1,0.2,0.7-0.1,0.6-0.2
		c-8.9-16.7-24.4-29.5-43.3-32.3c-17.4-2.6-37.3,3.1-49.8,15.7C504.8,389.3,505.4,389.2,505.5,389.1"/>
	<path class="st0" d="M493.2,434.5c6-13.5,22.9-20.3,36.1-24.4c0.4-0.1,0.3-0.4-0.1-0.3c-13.4,4.1-30.5,11.1-36.6,24.8
		C492.5,434.8,493.1,434.7,493.2,434.5"/>
	<path class="st0" d="M492.7,439.9c0.3,0,0.6-0.5,0.2-0.4C492.7,439.4,492.3,439.9,492.7,439.9"/>
	<path class="st0" d="M493.2,439.6c1.5-7.5,8.5-12.1,14.8-15.6c6-3.4,12.4-6,18.4-9.4c0.4-0.2,0-0.4-0.3-0.2
		c-6.7,3.9-14.1,6.7-20.7,10.8c-5.6,3.4-11.4,7.8-12.8,14.6C492.5,439.9,493.1,439.8,493.2,439.6"/>
	<path class="st0" d="M496.7,446.9c-5.1-8.4,2.1-14.7,8.3-18c6.4-3.4,13-6.4,18.8-10.7c0.4-0.3-0.2-0.3-0.4-0.2
		c-6.7,5.1-14.9,7.9-21.8,12.6c-5.2,3.5-8.7,8.7-5.8,15.4c0.1,0.2,1,1.2,0.9,1L496.7,446.9z"/>
	<path class="st0" d="M500.9,434.2c7-4.9,16.1-8,22-14.3c0.3-0.3-0.4-0.3-0.5-0.1c-3,3.2-7.2,5.4-11,7.6c-3.7,2.2-7.4,4.2-10.9,6.6
		C500,434.2,500.6,434.4,500.9,434.2"/>
	<path class="st0" d="M509.7,382.4c13.6-11.9,34.9-15.6,52.3-12.1c9.3,1.9,18,6.1,25.5,11.8c8.2,6.3,14,13.5,17.8,23
		c0.1,0.3,0.8,0.2,0.7-0.1c-4-10-10.2-17.3-18.7-23.8c-7.6-5.8-16.5-9.6-25.8-11.5c-17.3-3.5-38.7,0.7-52.2,12.5
		C509,382.4,509.5,382.6,509.7,382.4"/>
	<path class="st0" d="M515,375.5c18.3-11.3,40.9-14.4,61.3-7.6c16.5,5.5,31.1,19.7,37.4,35.9c0.1,0.2,0.7-0.1,0.6-0.2
		c-6.9-17.6-22.9-31.9-41-37.1c-19.8-5.7-41.4-1.9-58.7,8.9C514.2,375.6,514.8,375.6,515,375.5"/>
	<path class="st0" d="M520.6,369.7c18.4-10.7,41.9-14.2,62.2-7c8.5,3,16.1,8.1,22.5,14.4c7.2,7.1,11.7,15.4,16.3,24.2
		c0.1,0.2,0.7-0.1,0.6-0.2c-4.7-8.9-9.2-17-16.3-24.3c-6.8-6.9-15.3-12-24.4-15.1c-19.9-6.7-43.3-2.6-61.1,7.8
		C519.9,369.6,520.3,369.8,520.6,369.7"/>
	<path class="st0" d="M526.6,364.2c10-6,21.2-8.6,32.7-9.6c10.4-0.9,19.9-0.4,29.7,3.4c9.5,3.7,18.1,9.8,25,17.3
		c6.4,6.9,10.8,15.7,14.8,24.2c0,0,0.7-0.2,0.5-0.4c-4-8.6-8.4-17-14.7-24.1c-6.9-7.7-15.8-13.6-25.3-17.4c-9.8-4-19.6-4.2-30-3.4
		c-11.6,0.9-23,3.6-33,9.7C525.9,364.1,526.3,364.4,526.6,364.2"/>
	<path class="st0" d="M538,355.9c9.2-3.5,19-5.6,28.8-6.5c11.8-1,23.3,2.1,33.9,7.2c17,8.4,28.6,23.2,35,40.9c0.1,0.2,0.7,0,0.6-0.2
		c-6.6-18.5-18.9-33.3-36.8-41.8c-10.2-4.9-21.1-7.3-32.5-6.5c-9.9,0.7-19.9,3-29.1,6.5C537.5,355.7,537.6,356.1,538,355.9"/>
	<path class="st0" d="M551.1,349.1c19.7-6.2,42.3-4.2,60.6,5.6c16.1,8.7,26.1,24.3,30,41.9c0.1,0.3,0.7,0.1,0.6-0.2
		c-4-18.2-14.3-33.6-30.9-42.5c-18.1-9.7-41-11.3-60.5-5.2C550.5,348.7,550.7,349.2,551.1,349.1"/>
	<path class="st0" d="M571.1,342.3c18.8-3.9,41.1,2.6,56.3,13.9c6.3,4.7,11,10.9,14.5,17.9c3.6,7.1,5.1,13.5,5.7,21.3
		c0,0.2,0.7,0.2,0.6,0c-0.6-8.2-2.4-14.9-6.1-22.4c-3.6-7.2-8.9-13.4-15.4-18.1c-15.2-10.9-36.2-17-54.6-13.1
		C571.9,341.9,570.6,342.4,571.1,342.3"/>
	<path class="st0" d="M594.8,338c15.4,1.6,32.1,6.9,43.8,17.4c11.1,10,16.1,25.5,14.7,40.1c0,0.3,0.6,0.1,0.6-0.1
		c1.4-14.9-3.8-29.9-14.8-40.3c-11.4-10.7-28.8-15.9-44-17.5C595,337.6,594.4,338,594.8,338"/>
	<path class="st0" d="M613.9,337.3c7.6,1.7,13.8,3.7,20.7,7.6c5.8,3.2,11.2,7.7,15.5,12.7c9.1,10.5,12,25.2,9.5,38.6
		c-0.1,0.3,0.6,0.2,0.7-0.1c2.5-13.4-0.4-27.4-9-38.2c-9.6-12.1-22-17.5-36.6-20.8C614.4,337,613.5,337.2,613.9,337.3"/>
	<path class="st0" d="M631,338.6c15.7,5.2,29.8,15,34.3,31.6c2.4,8.8,1.6,18-0.5,26.8c0,0.1,0.5,0.2,0.6,0
		c2.1-8.7,2.8-17.7,0.7-26.5c-4.1-16.9-18.8-27-34.5-32.2C631.5,338.3,631,338.6,631,338.6"/>
	<path class="st0" d="M517,426.8c7.1-3.4,13.9-7.6,21.1-10.9c9.3-4.2,19.4-6,29.6-6c18.1,0,35.7,7.1,50.4,17.2
		c14.3,9.9,23.8,23.9,30.5,39.7c3.9,9.1,6.7,18.7,8.6,28.4c1.4,7.2,1.7,15.1,4.9,21.8c0.1,0.3,0.7,0,0.6-0.2
		c-3.3-7.1-3.7-15.4-5.1-23c-2-10.1-5.2-20-9.4-29.4c-6.8-15.4-16.6-28.6-30.5-38.2c-14.3-9.9-31.3-16.2-48.7-16.7
		c-8.9-0.2-17.8,1.2-26.2,4.1c-7.9,2.8-15,7.3-22.3,11.1c-1.3,0.7-2.5,1.3-3.8,1.9C516.3,426.6,516.7,426.9,517,426.8"/>
	<path class="st0" d="M520.8,422.8c30.4-23.6,74.1-18.1,104.3,2.8c15,10.4,25.3,26.3,31.4,43.2c3.2,8.8,4.9,18,5.8,27.3
		c0.6,6.3,0.8,12.7,2.1,19c0.3,1.4,0.7,2.7,1.1,4c0.1,0.3,0.7,0,0.6-0.2c-2-6.3-2.3-12.9-2.8-19.4c-0.7-8.1-1.8-16-3.9-23.8
		c-4.6-16.9-13.6-32.7-26.5-44.6c-12.6-11.6-30.1-18.9-46.7-22.4c-16.4-3.5-32.7-2.1-48.2,4.1c-6.3,2.5-12.3,5.7-17.6,9.8
		C520.1,422.8,520.6,422.9,520.8,422.8"/>
	<path class="st0" d="M512.4,429.9c8.5-3.3,16.8-8,25.2-11.7c9.7-4.3,20.3-6.9,31.1-6.4c17.8,0.8,34.5,9.9,48,21.1
		c11.5,9.6,20.2,21.9,26.2,35.6c3.3,7.3,5.8,15.1,7.8,22.8c1.8,6.9,3.1,14.1,6.6,20.4c0.8,1.4,1.8,2.8,3,3.8
		c0.1,0.1,0.7-0.2,0.6-0.3c-5.1-4.1-6.7-12.5-8.2-18.5c-1.9-7.9-4.1-15.7-7.1-23.3c-5.2-13.5-12.9-25.9-23.2-36
		c-11.2-11.1-25.8-20.1-41.2-24c-16.5-4.2-32.8-1.1-47.7,6.4c-6.8,3.4-13.5,7-20.6,9.7c-0.4,0.1-1.1,0.7-0.7,0.6L512.4,429.9z"/>
	<path class="st0" d="M532.7,423.1c14.9-8.6,31.8-11.3,48.3-5.9c9.6,3.1,18.1,8.7,25.9,15c4.8,3.9,9.5,7.8,13.7,12.5
		c5.4,6.1,9.8,13,13.4,20.2c5.8,11.5,9,23.9,14,35.7c1.7,4.1,3.9,8.3,7.4,11.2c0.2,0.1,0.8-0.1,0.6-0.3c-3.5-2.9-5.6-7-7.3-11.1
		c-2.3-5.3-4.1-10.9-6-16.4c-4.8-13.7-10.8-26.9-20.1-38.1c-6.6-8-15.3-14.9-23.9-20.6c-9.5-6.3-20.6-10.8-32.1-11.4
		c-12.1-0.6-23.7,2.9-34.1,8.9C532,423,532.4,423.2,532.7,423.1"/>
	<path class="st0" d="M572.2,417.5c21.9,6.3,39.7,24.2,52,42.8c5.8,8.8,9.8,18.2,13.9,27.8c1.8,4.2,3.7,8.3,5.8,12.3
		c1.6,2.9,3.4,6.4,6.2,8.3c0.2,0.1,0.7-0.2,0.6-0.3c-3-2-4.9-5.8-6.5-8.9c-2.2-4.2-4.1-8.5-6-12.9c-4.2-9.9-8.5-19.4-14.6-28.4
		c-12-17.9-29.7-34.9-50.9-41C572.6,417.1,572,417.4,572.2,417.5"/>
	<path class="st0" d="M590.4,430.8c7.2,2.8,12.7,8.9,17.4,14.8c5.6,7.1,10.3,14.9,14.8,22.7c4.4,7.6,8.4,15.4,12.6,23.1
		c2.5,4.5,5,9.7,8.7,13.4c0.2,0.2,0.8-0.1,0.6-0.3c-4.2-4.1-6.9-10-9.6-15c-4.2-7.6-8.2-15.3-12.5-22.8c-4.6-8-9.6-15.9-15.4-23
		c-4.4-5.4-9.7-10.6-16.2-13.2C590.4,430.2,590,430.6,590.4,430.8"/>
	<path class="st0" d="M524.9,416.8c4.4-2.2,8.7-4.9,13.5-6.5c5.2-1.8,10.6-3.2,16.1-4.1c9.9-1.5,20.4-0.8,30.3,0.5
		c17.3,2.3,35.9,8.4,50,18.9c12.8,9.6,21.2,23.9,26.4,38.7c4.9,13.9,7.7,29.2,7.3,44c-0.1,3.9-0.4,7.8-0.8,11.7
		c0,0.3,0.6,0.2,0.7-0.1c3.1-27.9-3-59.1-20.2-81.8c-9.7-12.8-23.3-20.3-38.1-25.8c-16.6-6.1-35.5-8.8-53.1-7
		c-5.5,0.6-10.9,2-16.2,3.6c-5.7,1.8-10.7,4.7-16,7.3C524.2,416.6,524.6,416.9,524.9,416.8"/>
	<path class="st0" d="M526.9,413.2c15-9,34.3-11.5,51.5-8.9c0.2,0,0.7-0.3,0.4-0.4c-17.4-2.6-37,0-52.2,9.1
		C526.1,413.3,526.7,413.4,526.9,413.2"/>
	<path class="st0" d="M531.3,408.6c8.7-4.8,18.5-7.2,28.4-7.2c0.2,0,0.7-0.3,0.4-0.3c-10.2,0-20.2,2.5-29.2,7.4
		C530.5,408.7,531.1,408.7,531.3,408.6"/>
	<path class="st0" d="M597.7,406c12.3,2.8,24.4,5.9,35.3,12.6c10.8,6.6,19.7,16.3,26.4,27c14,22,16.3,50.2,9.9,75.1
		c-0.1,0.3,0.6,0.1,0.6-0.1c6.5-25.3,3.9-53-10-75.3c-6.7-10.8-15.8-20.2-26.5-27c-10.7-6.8-23.2-9.8-35.4-12.6
		C597.8,405.5,597.3,405.9,597.7,406"/>
	<path class="st0" d="M604.9,405.5c25.8,2.3,49.4,17.9,61.6,40.7c11.9,22.4,14.2,51.4,5,75c-0.1,0.1,0.6,0,0.6-0.1
		c9.5-24.4,6.6-53.9-5.9-76.8c-12.1-22.1-34.8-36.9-59.7-39.1C606.3,405.2,604.5,405.4,604.9,405.5"/>
	<path class="st0" d="M611.9,404c25.2,2.8,47.7,17.3,59.8,39.7c5.9,10.9,8.6,23.5,9.6,35.8c1.1,13.9-0.7,28.3-6.3,41.1
		c0,0.1,0.6-0.2,0.7-0.3c10.4-23.8,8.6-53.9-3.3-76.8c-11.8-22.5-34.9-37-59.9-39.7C612.3,403.7,611.7,404,611.9,404"/>
	<path class="st0" d="M618.8,402.4c21.7,2.4,42.5,12.9,54.7,31.4c6.9,10.5,10.4,22.9,11.6,35.3c1.6,16.2,0.4,33.6-5.9,48.7
		c-0.1,0.2,0.7-0.5,0.8-0.7c6.3-15,7.1-31.2,5.9-47.2c-1-13.1-4.8-26-12-37c-12.1-18.4-33.1-28.6-54.6-31
		C619,402.1,618.4,402.4,618.8,402.4"/>
	<path class="st0" d="M624.5,400.9c9.6,0.9,19.2,2.6,28,6.7c7.6,3.6,14.6,8.6,20.4,14.7c14.6,15.3,17.7,37.1,16.4,57.4
		c0,0.3,0.6,0.2,0.7-0.1c1.2-20.6-2-42.1-16.5-57.7c-6-6.5-13.6-11.5-21.5-15.2c-8.5-4-17.2-5.4-26.4-6.2
		C625.2,400.5,624.1,400.8,624.5,400.9"/>
	<path class="st0" d="M631.8,398.9c16.7,0.2,33.4,7.9,45.1,19.9c11.1,11.3,14.7,27.5,15.8,42.8c0,0.1,0.7,0,0.6-0.2
		c-1.1-15.5-4.9-31.2-15.9-42.9c-11.4-12.1-28.7-19.7-45.3-19.9C632.1,398.6,631.5,398.9,631.8,398.9"/>
	<path class="st0" d="M642.9,396.6c13.7,2.2,28.5,9.1,38.2,19.1c9.4,9.8,14.2,25,14.1,38.4c0,0.3,0.5-0.9,0.5-1.2
		c0.1-13.4-4.6-26.7-13.4-36.8c-4.5-5.1-10.3-8.7-16.2-11.9c-7.1-3.9-14.9-6.8-22.9-8.1C643,396.1,642.5,396.6,642.9,396.6"/>
	<path class="st0" d="M651.2,395.7c15.6,2.5,29.5,10.7,38.2,24c5.8,8.8,10.1,21.1,7.2,31.6c-0.1,0.4,0.6,0.3,0.6,0
		c3-10.8-1.4-23-7.3-32c-8.6-13.5-23-21.7-38.6-24.2C651,395.2,650.8,395.6,651.2,395.7"/>
	<path class="st0" d="M668.8,432.3c8.1,12.7,13.5,26.5,14.9,41.5c1.5,15.7-1.5,30.9-6.5,45.6l0.3-0.1c4.8-14.2,7.5-28.4,6.7-43.5
		c-0.9-15.8-6.7-30.5-15.1-43.7L668.8,432.3z"/>
	<path class="st0" d="M678.9,434.3c12.3,24.4,10.7,55.8,2.6,81.2l0.3-0.1c8.1-25.4,9.7-56.8-2.6-81.2L678.9,434.3z"/>
	<path class="st0" d="M685.3,436c4.4,10.3,6.7,21.8,5.7,32.9l0.3-0.1c0.9-11.2-1.3-22.7-5.7-32.9L685.3,436z"/>
	<path class="st0" d="M691.4,440.2c1.5,5.7,2.9,11.3,2.9,17.2c0,0.2,0.3,0.1,0.3-0.1c-0.1-5.9-1.4-11.5-2.9-17.2
		C691.7,440,691.4,440.1,691.4,440.2"/>
	<path class="st0" d="M696.4,442.7c0.5,3,0.3,6,0.3,9c0,0.1,0.3,0,0.3-0.1c0-3,0.2-6-0.3-9L696.4,442.7z"/>
	<path class="st0" d="M658.7,429.9c5,6.4,9.7,13.1,13.2,20.5c3.1,6.7,4.9,14,6.2,21.2c2.9,16.4,0.8,33.9-5,49.5c0,0.1,0.3,0,0.3-0.1
		c5.8-15.7,7.7-33,5-49.5c-1.2-7.3-3.2-14.5-6.2-21.2c-3.3-7.5-8.2-14.1-13.2-20.5L658.7,429.9z"/>
	<path class="st0" d="M648.5,427.4c12.5,10.8,19.4,25,23.5,40.7c4.5,17.4,4.1,35.2-1.4,52.5c0,0.1,0.3,0,0.3-0.1
		c5.4-16.9,5.9-34.3,1.6-51.5c-4-16.1-11.1-30.8-23.8-41.7L648.5,427.4z"/>
	<path class="st0" d="M638.9,425.8c27.1,22.7,36.3,60.3,29.6,94.2c0,0.2,0.3,0.1,0.3,0c6.7-33.9-2.5-71.7-29.6-94.3
		C639.1,425.6,638.8,425.7,638.9,425.8"/>
	<path class="st0" d="M630.4,425.6c13.9,11.4,24.3,26.5,29.7,43.7c5.1,16.2,6.7,32.8,6.5,49.7c0,0.1,0.3,0.1,0.3-0.1
		c0.2-17-1.5-33.5-6.5-49.8c-5.3-17.2-15.9-32.3-29.8-43.7C630.6,425.3,630.3,425.5,630.4,425.6"/>
	<path class="st0" d="M621.8,426.2c18.6,13.2,29.5,33.1,35.1,54.8c2.1,8,3.4,16.2,4.6,24.3c0.6,4.1,0.7,9.5,3,13.1
		c0.1,0.1,0.4,0,0.3-0.1c-2.4-3.8-2.5-9.8-3.1-14.1c-1.2-8.3-2.7-16.6-4.8-24.7c-5.6-21.2-16.7-40.6-34.8-53.4
		C621.9,425.9,621.7,426.1,621.8,426.2"/>
	<path class="st0" d="M611.1,425.1c15.8,10.2,27.2,25.2,34.8,42.3c3.4,7.8,5.9,15.9,8,24.2c2,8,2.6,16.4,6.6,23.8
		c0.1,0.1,0.4,0,0.3-0.1c-4-7.6-4.7-16.3-6.7-24.6c-2.2-8.7-4.9-17.1-8.6-25.3c-7.4-16.4-18.9-30.8-34-40.5
		C611.2,424.8,611,425,611.1,425.1"/>
	<path class="st0" d="M602.7,425.6c16.3,10.4,28.6,24.1,36.4,41.8c3.4,7.8,6,15.9,8.6,24c2.2,7,3.7,15.5,8.9,21l0.3-0.1
		c-5.5-5.9-7-15-9.4-22.4c-2.6-8.2-5.3-16.3-8.8-24.2c-7.6-17.1-20-30.2-35.7-40.2L602.7,425.6z"/>
	<path class="st0" d="M595.1,426.2c14.7,9.7,26.5,22.2,35.1,37.6c4.1,7.5,7.5,15.4,10.5,23.4c3,7.7,5.8,15.1,10.6,21.9l0.3-0.1
		c-4.8-6.8-7.6-14.2-10.6-21.9c-3.2-8.3-6.7-16.4-11-24.2c-8.4-15.1-20.2-27.3-34.6-36.8L595.1,426.2z"/>
	<path class="st0" d="M588.8,426.6c17.5,10.5,29.7,27.5,39.3,45.1c3.9,7,7.3,14.2,10.8,21.4c2.2,4.5,4.3,9.5,7.7,13.3l0.3-0.1
		c-3.6-4-5.9-9.5-8.2-14.3c-3.7-7.5-7.3-15.1-11.4-22.4c-9.4-16.9-21.4-33-38.2-43.1C588.9,426.4,588.6,426.5,588.8,426.6"/>
	<path class="st0" d="M606,448.3c7.7,7.7,13.1,17.4,18.3,26.9c4.5,8.3,8.5,17.1,14.3,24.6c0.1,0.1,0.4,0,0.3-0.2
		c-6-7.7-10.1-16.8-14.8-25.4c-5-9.3-10.4-18.6-17.9-26.1C606.1,448,605.8,448.2,606,448.3"/>
	<path class="st0" d="M619.6,365.9c9.7,7.9,15.9,19.2,19.1,31.1c0,0.1,0.3,0,0.3-0.1c-3.3-12-9.5-23.2-19.2-31.1L619.6,365.9z"/>
	<path class="st0" d="M609.5,366.6c11.2,8.2,18.3,18.7,22.7,31.7l0.3-0.2c-4.4-13.1-11.5-23.4-22.7-31.7L609.5,366.6z"/>
	<path class="st0" d="M599.5,367.3c12,8.5,19.9,20.1,25.7,33.5l0.3-0.1c-5.8-13.5-13.7-25-25.7-33.6L599.5,367.3z"/>
	<path class="st0" d="M588,369.1c13.6,7.7,23.6,19.2,29.5,33.6c0,0.1,0.4,0,0.3-0.1c-5.9-14.4-16-26-29.6-33.7
		C588.2,368.9,587.9,369.1,588,369.1"/>
	<path class="st0" d="M575.6,370.9c14.9,5.3,28.4,18.8,33.7,33.7c0,0.1,0.4,0,0.3-0.1c-5.4-15-18.8-28.5-33.8-33.8
		C575.8,370.7,575.5,370.9,575.6,370.9"/>
	<path class="st0" d="M566.9,374.3c15.2,4.3,28.1,17.1,34.5,31.3c0,0.1,0.4,0,0.3-0.1c-6.4-14.3-19.3-27-34.6-31.3
		C567,374.1,566.7,374.3,566.9,374.3"/>
	<path class="st0" d="M560.4,377.4c7.1,2.4,13.7,5.8,19.5,10.6c5.9,4.9,10.3,11.3,13.8,18c0.1,0.1,0.4,0,0.3-0.1
		c-3.5-6.5-7.7-12.5-13.2-17.5c-5.8-5.2-12.8-8.7-20.1-11.2C560.5,377.2,560.2,377.4,560.4,377.4"/>
	<path class="st0" d="M551.2,381.9c14.3,2.9,25.8,10.4,33,23.3c0.1,0.1,0.4,0,0.3-0.1c-7.2-12.9-18.8-20.4-33.2-23.4
		C551.3,381.7,551,381.9,551.2,381.9"/>
	<path class="st0" d="M546.4,386.6c10.2,2.6,21.3,6.9,26.9,16.4c0.1,0.1,0.4,0,0.3-0.1c-5.7-9.5-16.8-13.9-27-16.5
		C546.4,386.3,546.2,386.5,546.4,386.6"/>
	<path class="st0" d="M541.2,391.8c8.3,1,15.9,3.9,22,9.7l0.3-0.1c-6.2-5.8-13.7-8.7-22.1-9.7C541.3,391.6,541,391.8,541.2,391.8"/>
	<path class="st0" d="M493.2,431.7c3.8-7,9.7-12.8,16.6-16.8c0.2-0.1,0-0.2-0.1-0.1c-6.9,4.1-13,9.9-16.8,17
		C492.8,431.9,493.1,431.8,493.2,431.7"/>
	<path class="st0" d="M493.9,425.5c3.4-7.2,10.4-14,17.4-17.7c0.2-0.1,0-0.3-0.2-0.2c-7.1,3.7-14.1,10.6-17.6,17.9
		C493.5,425.7,493.8,425.7,493.9,425.5"/>
	<path class="st0" d="M493.9,420.6c3.6-8.8,11.8-15.8,20.2-19.7c0.2-0.1,0-0.1-0.1-0.1c-8.5,4-16.8,11-20.4,19.9L493.9,420.6z"/>
	<path class="st0" d="M495.1,413.1c4.8-8.4,13.4-14.6,22.3-18.1c0.2-0.1,0.1-0.2,0-0.1c-9,3.5-17.6,9.5-22.5,18
		C494.9,413.1,495.1,413.2,495.1,413.1"/>
	<path class="st0" d="M492.8,437c2.7-6.9,8.6-12.1,15-15.4c0.2-0.1,0-0.2-0.1-0.1c-6.5,3.4-12.4,8.7-15.2,15.6
		C492.5,437.2,492.8,437.1,492.8,437"/>
	<path class="st0" d="M494.8,444.3c-2.5-7.8,5-14.8,11-17.7c0.2-0.1,0-0.1-0.1-0.1c-6.1,3-13,9.5-11.4,17L494.8,444.3z"/>
	<path class="st0" d="M498.5,436c0.6-1.4,2-2.4,3.1-3.4c0.9-0.8,1.9-1.5,2.9-2.2c0.2-0.1-0.1-0.2-0.2-0.1c-1.2,0.8-2.3,1.7-3.4,2.6
		c-1,0.8-2.2,1.8-2.7,3.1C498.2,436.1,498.5,436.1,498.5,436"/>
	<path class="st0" d="M496.8,406.1c6.3-7.7,14-13.7,23.4-17c0.2-0.1,0.1-0.2,0-0.1c-9.5,3.3-17.3,9.4-23.7,17.2L496.8,406.1z"/>
	<path class="st0" d="M499.9,399.5c6.3-8.9,17.6-14.7,27.8-17.6c0.2-0.1,0.1-0.2-0.1-0.1c-10.3,2.9-21.7,8.8-28,17.7
		C499.5,399.6,499.8,399.6,499.9,399.5"/>
	<path class="st0" d="M503.5,392.1c7-7.8,17.5-13.5,27.9-15.1c0.2,0,0.2-0.3,0-0.2c-10.5,1.6-21.1,7.4-28.2,15.2
		C503.1,392.2,503.4,392.2,503.5,392.1"/>
	<path class="st0" d="M508.1,385.1c9.5-8.7,22.3-13.1,35-14.1c0.1,0,0.3-0.2,0.1-0.2c-12.8,1-25.8,5.4-35.4,14.2
		C507.8,385.2,508,385.2,508.1,385.1"/>
	<path class="st0" d="M512.9,377.9c12.5-7.6,25.8-11.7,40.5-11.8c0.1,0,0.3-0.2,0.1-0.2c-14.8,0.1-28.2,4.3-40.8,11.9
		C512.6,377.9,512.8,378,512.9,377.9"/>
	<path class="st0" d="M517.7,372.3c8.3-4.5,16.3-7.9,25.2-9.4c9-1.4,18.8-2.1,27.8-0.1c0.1,0,0.4-0.1,0.3-0.2
		c-8.8-2-18.3-1.5-27.2-0.1c-3.8,0.6-7.8,1.4-11.4,2.8c-5.4,2-10.3,4-15.1,7.2c-0.2,0.1,0.1,0.1,0.2,0.1L517.7,372.3z"/>
	<path class="st0" d="M524.7,365.9c19-8.9,40.8-12.7,61-5.7l0.3-0.1c-20.4-7.1-42.3-3.2-61.4,5.8C524.4,365.9,524.6,366,524.7,365.9
		"/>
	<path class="st0" d="M532.6,359.3c20.2-9.5,47.6-12.1,67.4-0.1l0.3-0.1c-19.9-12.1-47.4-9.4-67.8,0.2
		C532.3,359.4,532.5,359.4,532.6,359.3"/>
	<path class="st0" d="M545.2,351.8c23.6-7.5,49.9-6.2,69.6,10l0.3-0.1c-19.9-16.3-46.2-17.6-70-10
		C544.9,351.7,545,351.9,545.2,351.8"/>
	<path class="st0" d="M564.9,343.8c14.1-2.3,29.6,0,42.7,5.2c20.4,8.1,33.2,25.4,37.2,46.8l0.3,0c-2.2-11.4-6.3-22-14-30.8
		c-6.6-7.5-15.2-12.9-24.4-16.5c-12.8-5-28.1-7-41.7-4.8C564.9,343.7,564.7,343.8,564.9,343.8"/>
	<path class="st0" d="M586.1,338.9c12.1,1.2,24.1,3.8,35,9.3c7.8,3.9,14.7,9.4,19.8,16.4c6.6,9,9.3,20.1,9.4,31.1
		c0,0.2,0.3,0.1,0.3-0.1c-0.1-10.5-2.6-20.7-8.3-29.5c-4.8-7.4-11.8-13-19.4-17.2c-11.3-6.1-24-8.9-36.7-10.2
		C586.2,338.7,586,338.9,586.1,338.9"/>
	<path class="st0" d="M603.9,337.3c11.5,1.1,23,4.9,32.5,11.5c15.4,10.8,23.5,29.6,20.2,46.5c0,0.1,0.3,0.2,0.4,0.1
		c3.4-16.9-4.7-35.3-19.7-46.4c-9.5-7-21.5-10.8-33.1-11.9C604,337.1,603.7,337.3,603.9,337.3"/>
	<path class="st0" d="M623.7,337.7c9.2,2.4,18.1,7.5,25.2,13.8c13.2,11.6,17.9,28.9,13.5,45.3c0,0.1,0.3,0.1,0.3-0.1
		c4.6-17.7-0.3-33.1-13-44.9c-7.1-6.6-16.4-11.8-25.8-14.2C623.8,337.4,623.5,337.6,623.7,337.7"/>
	<path class="st0" d="M642.5,340.7c6.7,3.7,12.8,7.5,17.7,13.5c12.5,15.2,11.3,28.9,7.2,44c0,0.1,0.3,0.1,0.3-0.1
		c4-14.9,5.2-29.1-6.5-43.2c-5.2-6.3-11.5-10.6-18.5-14.4C642.7,340.4,642.4,340.6,642.5,340.7"/>
	<path class="st0" d="M657.6,346.2c4.8,3.6,8.9,7.5,12.1,12.6c8.5,13.7,5.9,26,1.9,40.5c-0.1,0.2,0.3,0.1,0.3,0
		c3.9-14,6.6-26.4-1.3-39.6c-3.3-5.6-7.7-9.9-12.8-13.7C657.8,345.9,657.5,346.1,657.6,346.2"/>
	<path class="st0" d="M536.4,397.2c5.1,0.3,10.7,1.4,15.3,3.9c0.1,0.1,0.4-0.1,0.2-0.2c-4.6-2.5-10.2-3.6-15.4-3.9
		C536.3,396.9,536.2,397.2,536.4,397.2"/>
	<path class="st0" d="M532.8,402.7c2.3-0.1,4.7-0.1,7,0.3c0.1,0,0.7-0.2,0.5-0.2c-2.3-0.3-5-0.4-7.3-0.2
		C532.8,402.5,532.5,402.7,532.8,402.7"/>
	<path class="st0" d="M529.3,407.7c1-0.2,2-0.3,3-0.4c0.2,0,0.2-0.3,0-0.2c-1,0.1-2,0.2-3,0.4C529.1,407.5,529,407.8,529.3,407.7"/>
	<g class="st1">
		<g>
			<path class="st0" d="M835.5,131.7c-6.8,0-13.4,0.2-20.4,0.3c-9.5,0-18,1.7-27.4,3.3c-16.4,2.8-31.7,7-45.8,13.5
				c-16.2,7.7-33.3,17.9-39.4,36.5c-4.8,14.5-3.3,28.2,2.8,44.4c2.1,5.7,3.8,12.1,7,18.6c-7.4,5.2-16.4,13.6-20.8,21.1
				c-6.9,12.1-13.8,25.1-14.6,39.3c-0.6,12.6,4.9,20.1,10.4,30.7c6.4,11.9,10,21.1,13.7,33.7c3.4,12.3,4.7,25.3,9,37.3
				c4.2,11.2,7.1,23.8,18.3,29.1c2.9,1.6,6,2.2,9.7,2.2c0.3,0,0.5,0,0.8,0c8.9-2.9,13.6-8.4,20.1-14.8c9.8-9.6,21.5-15.5,29.5-26.7
				c8.8-12.3,13.4-20.8,17.8-34.4c2-6,4.6-12.7,6.9-19.1c2.6-7.2,5.9-14.1,9.3-20.8c5.5-10.6,10.3-21.2,17.1-29.4
				c2.5-4.5,5.8-8.8,8.3-12.4c3.3-4.8,6.8-8.8,10.4-13.4c9.2-11.1,21.3-18.8,36.1-21.3c3.3-0.6,6.5-0.8,9.6-0.8
				c12.9,0,24.9,4.1,37.8,7.5c8.6,2.5,17.7,5.1,26.5,7c7.7,1.5,15,0.5,22.7,2.3c13.8,3,18.6,14,11.2,26c11.5-8.6,9.2-24.1,3.6-38.2
				c1.4-15.8-6.6-30-15-42.6c-10.1-15.2-20.6-27.4-34.6-39.4c-14.6-12.5-30.8-21.5-48.7-27.7c-9.4-3.3-19.7-5.8-28.5-7.5
				c-10.5-2.1-21.1-3.5-31.4-4C843.4,131.8,839.4,131.7,835.5,131.7"/>
		</g>
	</g>
	<path class="st0" d="M1002,291c3.7-6.3,4.2-13.8-1-19.7c-4.9-5.5-13.6-6.4-20.5-6.1c-1.2,0-1.7-1.4-0.3-1.5
		c8-0.3,16.5,1.2,22.5,6.9c6.1,5.8,4.1,14.3,0.3,20.7C1002.5,292.2,1001.5,291.9,1002,291"/>
	<path class="st0" d="M980.5,265.2c-22.5-0.1-46.6-13.2-71-15.3c-14.8-1.3-27.4,1.9-39,11.2c-11.7,9.4-20.9,22-29.2,34.4
		c-9,13.4-17,27.2-23.3,42.1c-6.2,14.6-11.1,29.7-17.2,44.3c-4.4,10.6-12.1,20.7-20.4,28.5c-5,4.8-10.9,8.4-16.2,12.9
		c-5.1,4.4-9.3,9.6-14.6,13.8c-3,2.3-6.4,3.9-9.9,5.2c-0.8,0.3-2.5-0.8-1.3-1.3c13.3-4.7,21.6-17.5,32.9-25.4
		c11-7.6,19.8-19.4,26-31.2c7.2-13.7,11.3-29.4,17.1-43.8c5.7-14.1,12.8-27.2,21-40c13-20.4,30.4-46.9,56-51.7
		c23.6-4.4,47.2,5.7,69.5,11.5c6.3,1.7,12.8,2.5,19.2,3.2C981.3,263.9,981.9,265.3,980.5,265.2"/>
	<path class="st0" d="M1006.2,256.3c-15.6-22.3-46.1-34.1-72.8-29c-0.3,0.1-1.2-0.3-0.9-0.4c27.3-5.2,58.7,6.7,74.7,29.5
		C1007.3,256.6,1006.4,256.6,1006.2,256.3"/>
	<path class="st0" d="M1005.6,248.8c-18.5-28.6-56-38.1-86.8-24.8c-0.3,0.1-1.6-0.1-1.2-0.2c31.3-13.6,70.2-4,89.1,25.1
		C1006.8,249.1,1005.8,249,1005.6,248.8"/>
	<path class="st0" d="M1005.4,245c-5.6-18.8-29.1-30.3-46.8-34.1c-22.4-4.8-45.4,2.1-63.3,15.7c-0.3,0.2-1.3-0.2-0.9-0.5
		c18.7-14.3,42.2-20.5,65.5-15.5c17.7,3.8,41,15.8,46.5,34.4C1006.5,245.4,1005.5,245.3,1005.4,245"/>
	<path class="st0" d="M1001.4,232.3c-10-19.5-35.8-29.9-56.7-31.1c-24.1-1.3-49.2,7.8-62.6,28.5c-0.2,0.4-1.3,0-1-0.4
		c14-21.6,39.8-30.1,64.7-28.7c20.8,1.2,46.7,12.2,56.5,31.5C1002.6,232.6,1001.6,232.6,1001.4,232.3"/>
	<path class="st0" d="M996.1,220c-7.3-10.6-19.1-17.2-30.8-21.7c-10.9-4.2-21.9-6.3-33.5-5.3c-28.1,2.4-54.7,16.9-68,42.4
		c-0.2,0.3-1.2,0.1-1-0.4c14-26.9,42-40.8,71.4-42.9c10.8-0.8,21.4,1.9,31.5,5.7c12,4.5,24.1,11.4,31.4,22.1
		C997.3,220.3,996.3,220.3,996.1,220"/>
	<path class="st0" d="M991.5,211.5c-17.9-22.9-51.1-29.6-78.6-25c-14.4,2.4-27.9,9.3-39.2,18.2c-5.5,4.3-10.4,9.4-14.7,14.9
		c-4.9,6.2-7.8,12.5-10.4,19.9c-0.1,0.4-1.2,0.1-1.1-0.2c1.1-3.2,2.3-5.9,4-9.5c1.9-3.8,3.9-7.2,6.4-10.5c4.9-6.4,10.9-12,17.3-16.9
		c11.6-8.8,25.8-15.1,40.2-16.9c27.4-3.5,59.4,3.2,77,25.9C992.7,211.9,991.7,211.8,991.5,211.5"/>
	<path class="st0" d="M979.8,195.9c-24.1-18.9-58.8-22.8-87.5-13.1c-27,9.1-47,32.6-57,58.6c-0.1,0.3-1.2,0-1.1-0.2
		c11-28.6,33.3-52.3,63.2-60.6c27.5-7.7,60.6-2.5,83.2,15.2C981.1,196.1,980,196.1,979.8,195.9"/>
	<path class="st0" d="M1008.8,266.5c-12.4-20.5-40.9-28.1-62.9-32c-0.6-0.1-0.5-0.6,0.1-0.5c22.3,4,51.3,11.8,63.9,32.5
		C1010,266.9,1009,266.8,1008.8,266.5"/>
	<path class="st0" d="M1010.5,275c-0.5,0-1.1-0.6-0.4-0.7C1010.6,274.3,1011.2,275,1010.5,275"/>
	<path class="st0" d="M1009.8,274.7c-4-11.8-16.1-17.7-26.8-22.1c-10.3-4.2-21.2-7.1-31.5-11.5c-0.7-0.3-0.1-0.7,0.4-0.5
		c11.6,5,24,8,35.5,13.2c9.7,4.4,19.9,10.3,23.5,20.9C1011,275.1,1009.9,275,1009.8,274.7"/>
	<path class="st0" d="M1005.5,287.2c6.5-14.5-6.4-23.2-17-27.2c-10.9-4.1-22.2-7.6-32.4-13.4c-0.6-0.4,0.3-0.6,0.6-0.4
		c11.9,6.8,25.5,9.8,37.6,15.9c9.1,4.6,15.7,12.2,12.5,23.7c-0.1,0.4-1.3,2.2-1.2,1.8L1005.5,287.2z"/>
	<path class="st0" d="M996.3,267.6c-12.2-6.4-27.5-9.6-38.2-18.6c-0.5-0.4,0.5-0.6,0.9-0.3c5.4,4.6,12.7,7.2,19.1,10
		c6.3,2.7,12.8,5.2,18.9,8.5C997.6,267.4,996.8,267.8,996.3,267.6"/>
	<path class="st0" d="M971.7,186c-24.3-16.4-59.2-18.1-86.5-9c-14.6,4.9-27.7,13.4-38.6,24.1c-11.9,11.7-19.7,24.5-24,40.5
		c-0.1,0.5-1.2,0.4-1.1,0c4.5-16.8,12.9-29.8,25.3-42.1c11-10.8,24.6-18.8,39.2-23.7c27.1-9.1,62.4-6.6,86.4,9.6
		C972.9,186,972.1,186.3,971.7,186"/>
	<path class="st0" d="M961.9,176.1c-31.6-14.5-68.6-15-100.1,0.1c-25.4,12.2-46,38-52.9,65.2c-0.1,0.3-1.1,0.1-1.1-0.2
		c7.5-29.8,30.4-55.9,58.5-67.9c30.7-13.1,66.1-11.3,96.2,2.5C963.1,176.1,962.1,176.2,961.9,176.1"/>
	<path class="st0" d="M951.7,167.8c-31.7-13.5-70.2-14.5-101.4,1.2c-13,6.5-24.3,16.3-33.2,27.7c-10.1,12.8-15.6,27.1-21.3,42.2
		c-0.1,0.4-1.2,0-1-0.3c5.7-15.3,11.4-29.2,21.4-42.3c9.5-12.5,22.1-22.4,36.2-29.2c30.6-14.8,69-12.9,99.8,0.2
		C952.7,167.6,952.2,168,951.7,167.8"/>
	<path class="st0" d="M940.9,160.2c-17.3-7.7-35.8-9.5-54.5-8.8c-16.8,0.6-32.1,3.3-47.1,11.4c-14.6,7.8-27.2,19.4-36.8,32.8
		c-8.9,12.4-14.2,27.4-18.9,41.9c0,0-1.1-0.1-1-0.6c4.7-14.6,10.1-29,18.9-41.7c9.5-13.7,22.6-25,37.1-33
		c15-8.4,30.7-10.7,47.6-11.5c18.9-0.8,37.7,1.2,55.1,9C942,159.8,941.4,160.4,940.9,160.2"/>
	<path class="st0" d="M920.9,149.2c-15.5-3.8-31.6-5.2-47.6-4.6c-19.3,0.7-37.1,8-53,18.4c-25.7,16.9-41.3,43.1-48,72.8
		c-0.1,0.4-1.1,0.1-1.1-0.2c7-31.1,23.6-57.3,50.7-74.6c15.5-9.9,32.5-15.9,50.9-16.9c16-0.9,32.6,0.9,48.1,4.7
		C921.6,148.8,921.5,149.3,920.9,149.2"/>
	<path class="st0" d="M898.5,140.8c-32.9-6-68.9,1.7-96.3,21.2c-24.2,17.2-37.1,44.3-39.8,73.4c0,0.5-1.1,0.3-1.1-0.2
		c2.8-30,16.2-56.9,41.1-74.6c27.2-19.3,63.6-26.4,96.1-20.5C899.3,140.2,899.2,140.9,898.5,140.8"/>
	<path class="st0" d="M865,133.9c-31-2.6-65.5,12.4-87.8,33.7c-9.2,8.8-15.5,19.8-19.7,31.7c-4.3,12.1-5.5,22.7-4.8,35.5
		c0,0.3-1,0.4-1.1,0.1c-0.7-13.4,0.8-24.5,5.3-37.2c4.4-12.3,11.6-23.3,21.2-32.2c22.2-20.6,54.8-34.5,85.1-32
		C863.7,133.5,865.7,133.9,865,133.9"/>
	<path class="st0" d="M826,131.8c-24.4,5.6-50.2,17.5-66.9,36.7c-15.9,18.2-20.7,44.2-15.6,67.4c0.1,0.4-1,0.3-1.1-0.1
		c-5.2-23.8,0.1-48.9,15.7-67.7c16.2-19.5,43.1-31.4,67.2-36.9C825.7,131.2,826.6,131.7,826,131.8"/>
	<path class="st0" d="M795.2,134.4c-11.9,4.3-21.5,8.8-31.8,16.3c-8.7,6.3-16.4,14.5-22.3,23.5c-12.4,18.8-14.2,42.9-7.5,64
		c0.2,0.5-0.9,0.4-1.1,0c-6.7-21.1-4.8-44.2,6.8-63.2c13-21.4,31.8-32.5,54.6-40.8C794.4,134.1,795.8,134.2,795.2,134.4"/>
	<path class="st0" d="M767.9,140c-24.2,11.4-44.9,30.1-48.8,57.7c-2.1,14.6,1.1,29.3,6.2,43c0.1,0.2-0.8,0.4-0.9,0.1
		c-5.1-13.5-8.1-27.9-6.5-42.4c3.2-28,24.8-47.2,49-58.7C767.1,139.6,768,139.9,767.9,140"/>
	<path class="st0" d="M738.6,151.2c-9.2,7.3-17.3,14.9-23.1,25.3c-12.1,21.8-7.9,46.9,3,68.2c0.1,0.2-0.9,0.2-1-0.1
		c-11.1-21.6-14.9-46.2-3-68.3c5.6-10.5,14-18.2,23.2-25.4C737.8,150.7,738.8,151,738.6,151.2"/>
	<path class="st0" d="M968.9,258.8c-12.2-4-23.8-9.5-36-13.3c-15.8-4.9-32.5-5.8-48.8-3.8c-29,3.6-55.9,18.5-77.5,37.8
		c-21,18.7-33.4,43.3-41.1,70c-4.4,15.4-7,31.3-8.2,47.3c-0.8,11.9,0.3,24.6-3.5,36c-0.2,0.4-1.2,0.2-1.1-0.2c4-12,2.8-25.6,3.7-38
		c1.2-16.7,4.4-33.2,9.2-49.2c7.8-26.1,20.9-49.2,41.3-67.5c21-18.7,47.1-32.4,75-36.6c14.2-2.2,28.9-1.7,42.9,1.4
		c13.2,2.9,25.5,8.7,38.1,13.4c2.1,0.8,4.3,1.5,6.5,2.2C970,258.5,969.4,259,968.9,258.8"/>
	<path class="st0" d="M961.9,253.2c-53.6-31.8-122.7-14.3-167.2,25.5c-22,19.6-35.4,47.4-41.8,75.8c-3.3,14.8-4.3,29.9-3.9,45
		c0.3,10.3,1.2,20.6,0.5,31c-0.2,2.2-0.5,4.5-0.9,6.7c-0.1,0.4-1.1,0.2-1.1-0.2c1.9-10.5,1.1-21.2,0.6-31.8
		c-0.5-13.1-0.3-26.1,1.5-39.1c4-28.1,15.2-55.4,33.6-77c18-21.2,44.5-36.4,70.6-45.4c25.7-8.9,52.2-9.9,78.4-3.1
		c10.6,2.7,20.9,6.7,30.3,12.3C963.2,253.1,962.3,253.4,961.9,253.2"/>
	<path class="st0" d="M977,263c-14.4-3.6-28.6-9.6-42.8-13.8c-16.4-4.9-34.1-7-51.3-4c-28.5,4.9-53.4,22.8-72.8,43.5
		c-16.6,17.7-28,39.3-35.1,62.4c-3.8,12.5-6.3,25.4-8,38.3c-1.6,11.5-2.2,23.2-6.4,34.1c-1,2.5-2.3,4.8-4.1,6.7
		c-0.2,0.2-1.2-0.1-1-0.3c7.3-7.6,8.2-21.5,9.4-31.4c1.5-13.1,3.5-26.1,6.7-38.9c5.7-22.7,15.5-44.2,30.1-62.6
		c15.9-20.1,37.5-37.5,61.4-46.9c25.6-10.1,52.4-8.3,78,0.7c11.6,4.1,23.1,8.5,35,11.5c0.6,0.2,1.9,0.9,1.3,0.8L977,263z"/>
	<path class="st0" d="M943,256.1c-25.8-10.9-53.3-11.8-78.9,0.2c-14.8,7-27.4,17.7-38.7,29.4c-7,7.3-13.7,14.5-19.5,22.8
		c-7.5,10.8-13.1,22.9-17.5,35.2c-7,19.6-9.6,40.3-15.3,60.2c-2,6.9-4.6,14.1-9.6,19.4c-0.3,0.3-1.3-0.1-1-0.4
		c5-5.3,7.5-12.4,9.6-19.3c2.7-9,4.4-18.4,6.4-27.6c5.1-23,11.9-45.4,24.7-65.3c9-14.1,21.6-27,34.3-38c14-12.1,30.9-21.5,49.3-24.7
		c19.4-3.4,38.6-0.1,56.6,7.5C944.1,255.9,943.5,256.3,943,256.1"/>
	<path class="st0" d="M878.3,255c-34,14.6-59,46.9-75,79.2c-7.5,15.2-12.1,31.3-16.8,47.5c-2,7-4.2,14-6.9,20.9
		c-1.9,5-4.1,10.9-8.3,14.6c-0.2,0.2-1.2-0.2-1-0.3c4.4-3.9,6.6-10.4,8.7-15.7c2.8-7.1,5-14.5,7-21.9c4.7-16.7,9.9-32.9,17.7-48.5
		c15.8-31.2,40.8-62.1,73.6-76.1C877.6,254.5,878.6,254.9,878.3,255"/>
	<path class="st0" d="M851.7,280c-11,6-18.6,16.8-25,27.3c-7.6,12.5-13.7,26-19.3,39.5c-5.5,13.1-10.4,26.4-15.7,39.6
		c-3.1,7.8-6.1,16.6-11.3,23.3c-0.3,0.4-1.3,0-1-0.4c5.9-7.4,9-17.4,12.4-26.1c5.2-13.1,10.1-26.3,15.6-39.2
		c5.8-13.8,12.2-27.5,20.2-40.1c6-9.5,13.4-19,23.4-24.5C851.6,279,852.3,279.7,851.7,280"/>
	<path class="st0" d="M954.2,244.4c-7.6-2.7-15-6.1-22.9-7.7c-8.8-1.9-17.7-3-26.7-3.3c-16.2-0.5-32.9,2.8-48.5,6.9
		c-27.4,7.2-56,20.6-76.5,40.5c-18.6,18-29.2,42.7-34.7,67.6c-5.1,23.3-6.5,48.6-2.9,72.2c1,6.2,2.2,12.4,3.6,18.6
		c0.1,0.5-1,0.4-1.1,0c-10.6-44.2-7-95.6,16.1-135.5c13-22.5,33.3-37.3,56-49c25.5-13.2,55.3-21.3,84-21.9c9-0.2,18,1,26.8,2.6
		c9.5,1.7,18.2,5.3,27.2,8.6C955.3,244,954.7,244.5,954.2,244.4"/>
	<path class="st0" d="M950.2,239.1c-26-11.4-57.5-11.5-84.5-4c-0.3,0.1-1.3-0.4-0.7-0.5c27.5-7.7,59.4-7.5,85.8,4.1
		C951.5,239.1,950.6,239.3,950.2,239.1"/>
	<path class="st0" d="M942.2,232.5c-14.9-5.9-31.2-7.8-47.1-5.9c-0.3,0-1.2-0.4-0.7-0.5c16.3-2,33.1,0,48.3,6
		C943.5,232.5,942.5,232.6,942.2,232.5"/>
	<path class="st0" d="M835.1,241.7c-19.2,7-38.1,14.5-54.2,27.3c-16,12.8-28.3,30.2-37.1,48.6c-18.1,38.2-16.1,83.9-0.8,122.8
		c0.2,0.4-0.9,0.3-1.1,0c-15.5-39.3-16.9-84.4,0.9-123.1c8.6-18.7,21.3-35.7,37.2-48.7c15.9-13.1,35.3-20.4,54.4-27.4
		C834.8,240.9,835.7,241.4,835.1,241.7"/>
	<path class="st0" d="M823.4,242.3c-41,8.9-75.8,38.6-90.8,77.7c-14.7,38.4-12.5,85.5,7,121.7c0.1,0.2-0.9,0.2-1-0.1
		c-20.1-37.3-21.4-85.4-5.9-124.6c15.1-38,48.5-66.2,88.2-74.8C821.1,242.1,823.9,242.2,823.4,242.3"/>
	<path class="st0" d="M811.8,241.3c-40,9.6-73.2,37.4-88.2,75.8c-7.3,18.8-9.1,39.4-8.2,59.4c1,22.6,6.8,45.4,18.4,64.8
		c0.1,0.1-1-0.1-1.2-0.4c-21.5-36.1-24.7-84.9-10.1-124.1c14.4-38.5,48.7-66.4,88.4-75.9C811.1,240.9,812,241.3,811.8,241.3"/>
	<path class="st0" d="M800.4,240.2c-34.4,8.2-65.7,29.2-81.6,61.4c-9,18.3-12.1,38.9-11.5,59.1c0.7,26.3,6.1,54.2,19.3,77.2
		c0.2,0.3-1.3-0.6-1.4-0.9c-13.1-22.8-17.6-48.7-18.9-74.6c-1.1-21.2,2.5-42.7,11.9-61.9c15.7-31.9,47.5-52.7,81.5-60.8
		C800,239.6,801,240.1,800.4,240.2"/>
	<path class="st0" d="M790.9,238.8c-15.2,3.3-30.4,8-43.6,16.4c-11.4,7.3-21.8,16.8-29.9,27.7c-20.3,27.5-20.9,63.2-14.9,95.6
		c0.1,0.5-1,0.5-1.1,0c-6.1-32.8-5.2-68,14.9-96c8.3-11.6,19.6-21.2,31.5-28.8c12.8-8.1,26.7-12.1,41.3-15.3
		C789.7,238.3,791.5,238.6,790.9,238.8"/>
	<path class="st0" d="M778.8,237.1c-26.9,3.6-52.1,19.5-68.5,41c-15.5,20.4-18.2,47.2-16.8,72c0,0.2-1,0.1-1.1-0.2
		c-1.3-25.2,1.7-51.2,16.9-72.1c15.9-21.8,42.2-37.5,68.8-41.1C778.3,236.7,779.3,237,778.8,237.1"/>
	<path class="st0" d="M760.4,235.7c-21.5,6.3-44,20.3-57.5,38.4c-13.1,17.6-17.9,43-15,64.6c0.1,0.5-1.1-1.3-1.1-1.8
		c-2.8-21.5,2-43.9,14.2-61.9c6.2-9.1,14.9-16.1,23.7-22.4c10.7-7.7,22.5-13.9,35.1-17.6C760.2,234.9,761,235.5,760.4,235.7"/>
	<path class="st0" d="M747,235.8c-24.6,7.1-45.2,23.2-56.7,46.3c-7.6,15.3-12,35.9-5.2,52.3c0.2,0.6-0.8,0.6-1,0.2
		c-7-16.8-2.3-37.2,5.2-52.9c11.2-23.4,32.6-39.5,57.2-46.6C747.1,234.9,747.6,235.7,747,235.8"/>
	<path class="st0" d="M725.9,298.3c-10.5,22-16.4,45.3-15.7,69.8c0.8,25.5,8.6,49.3,19.6,72.1c0,0.1-0.5,0.1-0.5-0.1
		c-10.6-21.9-17.8-44.1-19.5-68.6c-1.7-25.5,4.6-50.4,15.5-73.3C725.5,298,726,298.2,725.9,298.3"/>
	<path class="st0" d="M710.2,303.5c-14.9,41.7-6,91.8,12.1,131.1c0,0.1-0.5,0.1-0.5-0.1c-18.2-39.3-27-89.4-12.1-131.1
		C709.7,303.3,710.2,303.4,710.2,303.5"/>
	<path class="st0" d="M700.2,307.5c-5,17.4-6.3,36.3-2.6,54.1c0,0.1-0.5,0-0.5-0.1c-3.7-17.8-2.4-36.7,2.6-54.1
		C699.7,307.3,700.3,307.5,700.2,307.5"/>
	<path class="st0" d="M691.2,315.5c-1.3,9.4-2.3,18.7-1.2,28.1c0,0.2-0.5,0.2-0.5,0c-1.1-9.5-0.1-18.8,1.2-28.2
		C690.7,315.2,691.2,315.3,691.2,315.5"/>
	<path class="st0" d="M683.7,320.4c-0.1,4.9,0.8,9.7,1.4,14.5c0,0.1-0.5,0.1-0.5-0.1c-0.6-4.8-1.5-9.6-1.4-14.4
		C683.1,320.2,683.7,320.3,683.7,320.4"/>
	<path class="st0" d="M741.7,292.3c-6.8,11.3-13.1,22.9-17.1,35.6c-3.6,11.4-5.1,23.5-5.7,35.4c-1.4,26.9,5.6,54.7,18,78.5
		c0.1,0.1-0.4,0.1-0.5,0c-12.5-24-19-51.5-18-78.6c0.5-11.9,2.2-24,5.7-35.4c3.9-12.7,10.3-24.4,17.1-35.6
		C741.3,292,741.8,292.1,741.7,292.3"/>
	<path class="st0" d="M757.7,286.2c-17.9,19.8-26.1,44.1-29.6,70.1c-3.8,29,0.5,57.5,12.8,84c0.1,0.1-0.5,0.1-0.5,0
		c-12.1-26.2-16.3-53.9-13-82.4c3.1-26.7,11.6-51.7,29.8-71.9C757.3,285.9,757.8,286.1,757.7,286.2"/>
	<path class="st0" d="M772.7,281.8c-39,41.9-46.3,104.3-28.7,157.4c0.1,0.2-0.5,0.2-0.5,0c-17.7-53.2-10.3-115.7,28.7-157.6
		C772.3,281.5,772.9,281.6,772.7,281.8"/>
	<path class="st0" d="M786.4,279.7c-20.1,21.1-33.8,47.5-39,76.2c-4.9,27.1-4.2,54.1-0.5,81.3c0,0.2-0.5,0.2-0.5,0
		c-3.7-27.3-4.3-54.1,0.5-81.3c5.1-28.7,19.1-55.2,39.1-76.2C786,279.4,786.5,279.6,786.4,279.7"/>
	<path class="st0" d="M800.3,278.9c-27.2,24.9-40.7,59.1-45.4,95.1c-1.7,13.3-2.2,26.6-2.5,40c-0.2,6.6,0.8,15.4-2.2,21.6
		c-0.1,0.2-0.6,0-0.5-0.2c3.2-6.6,2-16.2,2.2-23.3c0.3-13.6,1-27.2,2.8-40.7c4.8-35.2,18.7-68.6,45.2-92.9
		C800,278.5,800.5,278.7,800.3,278.9"/>
	<path class="st0" d="M817.3,275.1c-23.4,19.5-38.7,46-47.4,75c-4,13.2-6.3,26.8-8,40.4c-1.6,13.3-0.9,26.9-5.8,39.6
		c-0.1,0.2-0.6,0.1-0.5-0.1c4.9-13,4.2-27.2,5.9-40.9c1.7-14.4,4.5-28.5,8.8-42.4c8.7-27.8,24.1-53.3,46.6-72
		C817,274.7,817.5,274.9,817.3,275.1"/>
	<path class="st0" d="M830.9,274.3c-24.1,19.9-41.1,44.4-50.1,74.5c-3.9,13.2-6.5,26.8-9,40.3c-2.2,11.7-2.9,25.6-10.1,35.6
		c-0.1,0.1-0.6,0-0.5-0.2c7.6-10.5,8.2-25.6,10.5-37.9c2.6-13.7,5.3-27.3,9.4-40.6c8.8-28.9,26.1-52.6,49.3-71.8
		C830.5,274,831,274.2,830.9,274.3"/>
	<path class="st0" d="M843.3,273.5c-21.7,18.5-38.2,40.9-48.8,67.4c-5.2,12.9-8.9,26.3-12.2,39.7c-3.2,12.9-6.3,25.4-12.6,37.3
		c-0.1,0.1-0.6,0-0.5-0.1c6.3-11.9,9.4-24.4,12.6-37.3c3.4-13.9,7.4-27.7,12.8-41.1c10.4-26,27.1-48,48.3-66.1
		C842.9,273.3,843.4,273.5,843.3,273.5"/>
	<path class="st0" d="M853.5,273c-26.1,20.4-42.2,50.2-54.2,80.5c-4.8,12-8.8,24.4-13,36.6c-2.6,7.7-5,16.2-9.7,22.9
		c-0.1,0.2-0.6,0-0.5-0.2c5.1-7.2,7.5-16.5,10.4-24.7c4.4-12.9,8.8-25.8,13.9-38.4c11.7-29,27.8-57.3,52.8-76.9
		C853.2,272.7,853.7,272.8,853.5,273"/>
	<path class="st0" d="M830.2,311.3c-10.8,14-17.6,30.6-24,47c-5.5,14.2-10.3,29.2-18.1,42.4c-0.1,0.2-0.6,0-0.5-0.2
		c8.1-13.6,12.9-29.1,18.6-43.8c6.2-15.9,13-32,23.5-45.6C829.9,310.9,830.4,311.1,830.2,311.3"/>
	<path class="st0" d="M791.8,181.6c-13.9,14.7-21.7,34-24.5,53.8c0,0.2-0.6,0.1-0.5-0.1c2.8-19.9,10.6-39.2,24.5-53.9
		C791.4,181.3,791.9,181.5,791.8,181.6"/>
	<path class="st0" d="M808.1,180.7c-16.4,15.5-25.7,33.7-30.1,55.6c0,0.1-0.6-0.1-0.6-0.2c4.4-21.9,13.7-40,30.1-55.5
		C807.7,180.4,808.1,180.6,808.1,180.7"/>
	<path class="st0" d="M824.3,179.8c-17.6,16.1-28,36.3-34.6,59.1c0,0.2-0.6,0-0.5-0.1c6.6-22.8,17-43,34.6-59.1
		C823.9,179.5,824.4,179.7,824.3,179.8"/>
	<path class="st0" d="M843.1,180.5c-20.3,15.1-34.1,35.7-40.7,60c-0.1,0.2-0.6,0.1-0.5-0.1c6.7-24.4,20.5-45,40.8-60.1
		C842.9,180.1,843.4,180.3,843.1,180.5"/>
	<path class="st0" d="M863.4,180.9c-23,11.6-41.9,35.9-47.5,61c-0.1,0.2-0.6,0.1-0.5-0.1c5.6-25.2,24.5-49.6,47.6-61.2
		C863.2,180.5,863.7,180.8,863.4,180.9"/>
	<path class="st0" d="M878.2,184.6c-23.5,10-41.8,33.1-49.2,57.2c-0.1,0.2-0.6,0.1-0.5-0.1c7.4-24.2,25.7-47.3,49.3-57.3
		C877.9,184.3,878.4,184.5,878.2,184.6"/>
	<path class="st0" d="M889.3,188.2c-10.9,5.3-20.9,12-29.1,20.9c-8.4,9.1-14.2,20.3-18.6,31.8c-0.1,0.2-0.6,0-0.5-0.1
		c4.3-11.2,9.9-21.7,17.7-30.8c8.2-9.5,18.9-16.5,30.1-22C889,188,889.5,188.2,889.3,188.2"/>
	<path class="st0" d="M904.9,193.7c-22.4,7.6-39.5,21.9-48.4,44.1c-0.1,0.2-0.6,0-0.5-0.1c9-22.2,26.1-36.6,48.6-44.2
		C904.7,193.4,905.2,193.6,904.9,193.7"/>
	<path class="st0" d="M913.6,200.1c-15.9,6.2-32.8,15.4-40,31.8c-0.1,0.2-0.6,0.1-0.5-0.1c7.2-16.5,24.2-25.7,40.2-31.9
		C913.5,199.8,913.9,200,913.6,200.1"/>
	<path class="st0" d="M923,207.5c-13.2,3.2-24.7,9.4-33.5,20c-0.1,0.1-0.6,0-0.5-0.2c8.8-10.6,20.4-16.8,33.6-20.1
		C922.8,207.2,923.3,207.4,923,207.5"/>
	<path class="st0" d="M1008.2,262c-7.5-10.6-18.2-18.6-30.1-23.7c-0.3-0.1-0.1-0.4,0.2-0.3c11.9,5.2,22.8,13.3,30.3,23.9
		C1008.9,262.2,1008.3,262.2,1008.2,262"/>
	<path class="st0" d="M1005.9,252.3c-7-10.9-19.5-20.4-31.6-25c-0.3-0.1-0.1-0.4,0.2-0.3c12.2,4.6,24.9,14.2,31.9,25.2
		C1006.5,252.4,1006,252.5,1005.9,252.3"/>
	<path class="st0" d="M1004.8,244.4c-7.5-13.4-22.1-23-36.5-27.7c-0.4-0.1,0-0.2,0.2-0.1c14.5,4.7,29.2,14.3,36.8,27.8
		C1005.3,244.5,1004.8,244.5,1004.8,244.4"/>
	<path class="st0" d="M1001.3,232.6c-9.5-12.6-24.4-20.7-39.5-24.5c-0.3-0.1-0.3-0.3,0.1-0.2c15.2,3.9,30.1,11.7,39.7,24.4
		C1001.7,232.4,1001.4,232.7,1001.3,232.6"/>
	<path class="st0" d="M1009.8,270.5c-5.8-10.5-16.2-17.7-27.2-21.8c-0.3-0.1,0-0.3,0.2-0.2c11.2,4.2,21.7,11.5,27.6,22.1
		C1010.4,270.6,1009.9,270.6,1009.8,270.5"/>
	<path class="st0" d="M1008.1,282.6c2.4-13.1-11-22.7-21.2-26.2c-0.3-0.1,0-0.2,0.2-0.1c10.3,3.5,22.9,12.7,21.8,25
		C1009,281.4,1008.1,282.7,1008.1,282.6"/>
	<path class="st0" d="M1000.4,270c-1.2-2.1-3.6-3.5-5.6-4.8c-1.7-1.1-3.4-2-5.1-3c-0.3-0.2,0.1-0.4,0.3-0.2c2,1.1,4,2.3,6,3.6
		c1.8,1.2,3.9,2.5,4.9,4.4C1001.1,270.1,1000.5,270.2,1000.4,270"/>
	<path class="st0" d="M997.2,221.7c-11.6-11.1-25.3-19.3-41.1-22.7c-0.3-0.1-0.3-0.2,0-0.2c16,3.4,29.8,11.7,41.5,22.9
		C997.8,221.8,997.3,221.7,997.2,221.7"/>
	<path class="st0" d="M990.9,211.6c-11.9-13-31.2-20-48.2-22.7c-0.3-0.1-0.3-0.3,0-0.2c17.2,2.7,36.6,9.8,48.6,22.9
		C991.5,211.7,991,211.7,990.9,211.6"/>
	<path class="st0" d="M983.6,200.4c-12.9-11.1-30.9-18.2-47.9-18.7c-0.3,0-0.4-0.4-0.1-0.4c17.2,0.5,35.4,7.6,48.4,18.8
		C984.3,200.4,983.8,200.5,983.6,200.4"/>
	<path class="st0" d="M974.8,190.2c-17.1-12.2-38.5-16.6-59.2-15.6c-0.2,0-0.6-0.3-0.2-0.3c20.8-1,42.5,3.4,59.7,15.7
		C975.4,190.2,975,190.3,974.8,190.2"/>
	<path class="st0" d="M965.6,179.5c-21.6-9.7-43.8-13.7-67.5-10.9c-0.2,0-0.6-0.3-0.2-0.3c23.9-2.8,46.1,1.2,67.9,11
		C966.2,179.4,965.9,179.6,965.6,179.5"/>
	<path class="st0" d="M956.9,171.5c-14.2-5.6-27.9-9.5-42.4-10c-14.8-0.5-30.6,0.4-44.7,5.5c-0.1,0.1-0.6-0.1-0.4-0.2
		c13.8-5,29.1-6,43.6-5.6c6.2,0.2,12.9,0.7,18.9,2.2c9.1,2.2,17.3,4.4,25.8,8.6c0.3,0.1-0.2,0.2-0.3,0.1L956.9,171.5z"/>
	<path class="st0" d="M944.3,162.6c-32.3-10.5-68.1-12.3-99.2,3.1c-0.2,0.1-0.6-0.1-0.5-0.2c31.4-15.5,67.3-13.6,99.9-3
		C944.8,162.6,944.5,162.7,944.3,162.6"/>
	<path class="st0" d="M930.2,153.6c-34.4-11.2-78.9-10-108.3,13.4c-0.1,0.1-0.6-0.1-0.5-0.2c29.6-23.5,74.4-24.6,109-13.3
		C930.7,153.6,930.4,153.7,930.2,153.6"/>
	<path class="st0" d="M908.6,144.1c-39.5-7.4-81.4,0-109.9,30.1c-0.1,0.1-0.6,0-0.5-0.2c28.7-30.3,70.8-37.6,110.5-30.2
		C909,143.9,908.9,144.1,908.6,144.1"/>
	<path class="st0" d="M875.3,135.1c-23.1-0.9-47.5,5.9-67.6,16.9c-31.2,17.2-48.3,47.5-50.5,82.7c0,0.1-0.6,0.2-0.6,0
		c1.2-18.8,5.8-36.7,16.4-52.4c9-13.4,21.8-23.9,36-31.5c19.6-10.6,43.7-16.9,66.1-16C875.2,134.9,875.6,135.1,875.3,135.1"/>
	<path class="st0" d="M840.1,131.5c-19.2,4.4-37.9,11-54.4,22c-11.7,7.8-21.7,18-28.6,30.3c-8.8,15.8-10.9,34.1-8.9,51.9
		c0,0.2-0.5,0.2-0.5,0c-1.9-16.9,0-33.8,7.4-49.2c6.2-12.8,16.3-23.3,27.8-31.6c16.9-12.1,36.8-19.1,57-23.7
		C840,131.2,840.4,131.5,840.1,131.5"/>
	<path class="st0" d="M811.2,132.5c-18.3,4.1-36,12.4-50,25c-22.6,20.4-31.8,52.3-23.1,78.8c0.1,0.2-0.5,0.4-0.6,0.2
		c-8.8-26.5,0.5-57.8,22.4-78.5c13.9-13.1,32.4-21.6,50.9-25.8C811,132.2,811.5,132.5,811.2,132.5"/>
	<path class="st0" d="M779.4,137c-14.3,5.6-27.7,15.7-37.8,27.2c-18.8,21.4-22.9,50.1-12.6,75.5c0.1,0.2-0.5,0.2-0.5,0
		c-11-27.6-6.2-53.3,12-74.9c10.1-12,24-22.3,38.6-28C779.3,136.7,779.7,136.9,779.4,137"/>
	<path class="st0" d="M749.8,145.6c-10,7.2-19,14.7-25.8,25.2c-17.1,26.9-12.3,48.7-2.7,72.2c0.1,0.2-0.5,0.2-0.5,0
		c-9.5-23.2-14.3-45.7,1.8-70.7c7.1-11.1,16.4-19.3,26.8-26.9C749.5,145.3,750,145.5,749.8,145.6"/>
	<path class="st0" d="M726.7,157.6c-7,6.8-12.8,13.8-17,22.7c-11,23.7-4.3,43,5.1,65.5c0.1,0.3-0.4,0.3-0.5,0.1
		c-9.1-21.8-15.9-41.1-5.9-64c4.2-9.7,10.4-17.4,17.9-24.7C726.4,157.1,726.9,157.4,726.7,157.6"/>
	<path class="st0" d="M931.8,215.2c-8.2,1.5-17,4.4-23.8,9.3c-0.2,0.1-0.7-0.1-0.4-0.3c6.9-5,15.7-7.9,24-9.4
		C931.8,214.8,932.1,215.1,931.8,215.2"/>
	<path class="st0" d="M938.7,223.3c-3.8,0.2-7.5,0.8-11.1,1.8c-0.1,0-1.1-0.1-0.8-0.2c3.7-1,8-1.6,11.8-1.8
		C938.7,223,939.1,223.2,938.7,223.3"/>
	<path class="st0" d="M945.4,230.7c-1.6-0.1-3.2-0.1-4.8,0c-0.3,0-0.4-0.4-0.1-0.4c1.6-0.1,3.2-0.1,4.8,0
		C945.6,230.4,945.7,230.8,945.4,230.7"/>
	<g class="st2">
		<g>
			<path class="st0" d="M703.5,766.4c-5,59-18.9,132.7-48.3,204.7h-9.9c15.6-37.3,38.9-111.1,48.7-195.7L703.5,766.4z"/>
		</g>
	</g>
	<g class="st2">
		<g>
			<path class="st0" d="M698.8,622.2c-8.2-56.6-20.3-93.8-18.9-105l-1,0.9c-3.6,2.8-9.2,4.8-12.5,0.8h-0.3
				c13.9,36.8,22.8,73.8,27.8,109.9L698.8,622.2z"/>
		</g>
	</g>
	<g class="st3">
		<g>
			<path class="st0" d="M672.9,789.1c8.5,54.2,24.6,114.8,51.7,182h14.9c-18.9-31.6-46.8-100.8-59.5-186.3L672.9,789.1z"/>
		</g>
	</g>
	<g class="st3">
		<g>
			<path class="st0" d="M674.7,658c4.8-73.6,24.9-149,71.6-220.9l-1.8,1.9c-7,5.4-14.7,0.5-21.5-3.5l-0.8-0.9
				c2.5,20.6-51.3,98.8-56.8,236.5L674.7,658z"/>
		</g>
	</g>
</g>
</svg>
